<?xml version="1.0" standalone="no"?>
<!DOCTYPE svg PUBLIC "-//W3C//DTD SVG 20010904//EN"
 "http://www.w3.org/TR/2001/REC-SVG-20010904/DTD/svg10.dtd">
<svg version="1.0" xmlns="http://www.w3.org/2000/svg"
 width="14.694px" height="14.588px" viewBox="0 0 337.000000 333.000000"
 preserveAspectRatio="xMidYMid meet">

<g transform="translate(0.000000,333.000000) scale(0.100000,-0.100000)"
fill="#4C7BF3" stroke="none">
<path d="M570 3320 c454 -4 545 -7 430 -13 -80 -5 -165 -13 -190 -18 -25 -5
-67 -14 -95 -20 -57 -12 -92 -24 -152 -50 -24 -11 -45 -19 -48 -19 -11 0 -133
-78 -165 -106 -162 -140 -241 -267 -298 -479 -40 -146 -52 -378 -52 -976 0
-665 13 -850 70 -1034 59 -187 156 -329 302 -439 52 -39 148 -96 162 -96 7 0
16 -4 22 -9 5 -5 38 -19 74 -32 l65 -24 995 0 995 0 65 23 c288 104 474 290
564 564 52 160 51 143 51 1053 0 778 -1 856 -18 923 -34 141 -78 248 -140 342
-37 55 -187 210 -204 210 -7 0 -13 4 -13 8 0 4 -22 19 -50 33 -27 13 -50 27
-50 32 0 4 -9 7 -19 7 -11 0 -22 4 -25 8 -7 12 -187 67 -261 80 -33 6 -123 15
-200 19 -108 6 -10 9 425 13 311 3 -195 5 -1125 5 -929 0 -1431 -2 -1115 -5z
m1788 -310 c211 -14 266 -27 392 -88 68 -34 153 -104 200 -167 45 -59 88 -175
112 -300 19 -102 19 -1528 0 -1630 -26 -130 -68 -243 -112 -299 -77 -97 -184
-176 -287 -211 -142 -48 -161 -49 -958 -50 -773 0 -832 3 -955 42 -95 30 -174
77 -245 148 -114 111 -149 188 -180 395 -21 139 -21 1441 0 1580 31 207 66
284 180 395 120 119 218 156 470 179 173 16 1170 21 1383 6z"/>
<path d="M2535 2726 c-16 -6 -36 -17 -43 -23 -7 -7 -18 -13 -23 -13 -5 0 -23
-21 -39 -47 -65 -102 -23 -242 87 -288 52 -22 131 -19 173 6 82 48 117 120
105 212 -6 42 -15 58 -54 96 -64 65 -135 84 -206 57z"/>
<path d="M1527 2485 c-129 -28 -217 -66 -324 -137 -265 -177 -413 -504 -369
-813 28 -193 84 -318 210 -469 76 -90 247 -204 366 -242 191 -62 390 -63 565
-2 53 19 195 91 195 100 0 4 5 8 11 8 15 0 90 61 143 115 44 46 121 159 153
225 129 267 106 593 -60 845 -49 74 -191 216 -235 234 -17 7 -32 17 -32 21 0
9 -152 80 -198 92 -165 41 -306 49 -425 23z m325 -310 c88 -26 187 -83 244
-139 55 -55 106 -144 140 -242 23 -65 23 -239 1 -312 -46 -153 -150 -274 -291
-341 -106 -51 -172 -65 -282 -59 -212 12 -387 126 -477 312 -47 98 -61 165
-55 272 13 235 152 420 374 500 98 35 248 39 346 9z"/>
</g>
</svg>
