<?xml version="1.0" standalone="no"?>
<!DOCTYPE svg PUBLIC "-//W3C//DTD SVG 20010904//EN"
 "http://www.w3.org/TR/2001/REC-SVG-20010904/DTD/svg10.dtd">
<svg version="1.0" xmlns="http://www.w3.org/2000/svg"
 width="315.000000pt" height="296.000000pt" viewBox="0 0 315.000000 296.000000"
 preserveAspectRatio="xMidYMid meet">

<g transform="translate(0.000000,296.000000) scale(0.100000,-0.100000)"
fill="#000000" stroke="none">
<path d="M1970 2339 c-219 -43 -388 -272 -366 -496 l7 -63 -38 0 c-115 0 -356
66 -490 133 -125 64 -256 158 -350 251 l-92 92 -22 -49 c-73 -171 -28 -383
108 -507 30 -28 53 -54 49 -57 -6 -6 -143 26 -178 41 -15 7 -18 3 -18 -20 0
-90 60 -216 139 -294 55 -55 165 -120 203 -120 10 0 18 -4 18 -9 0 -13 -101
-25 -151 -18 -21 3 -39 1 -39 -4 0 -28 59 -120 109 -169 67 -67 159 -115 255
-133 l68 -12 -46 -33 c-63 -46 -200 -107 -293 -133 -53 -14 -121 -23 -213 -26
l-134 -6 94 -48 c549 -280 1224 -158 1607 290 209 246 327 540 335 835 l2 99
108 107 c59 59 108 112 108 118 0 5 -32 0 -74 -14 -40 -12 -98 -26 -127 -30
l-54 -7 41 30 c53 40 110 107 140 165 27 54 30 65 11 49 -21 -17 -154 -70
-220 -87 l-59 -15 -38 35 c-102 92 -257 133 -400 105z"/>
</g>
</svg>
